<svg width="13" height="17" viewBox="0 0 13 17" fill="none" xmlns="http://www.w3.org/2000/svg">
<path d="M4 6.5L4.5 13M8.5 13L9 6.5M6.5 6.5V13M8.5 3.5H10.878C11.4757 3.5 11.9399 4.02086 11.8714 4.61463L10.6022 15.6146C10.5439 16.1192 10.1167 16.5 9.60875 16.5H2.92603C2.40349 16.5 1.96905 16.0977 1.92898 15.5767L1.08282 4.5767C1.03815 3.9959 1.49737 3.5 2.07988 3.5H4.5M8.5 3.5V2C8.5 1.44772 8.05228 1 7.5 1H5.5C4.94772 1 4.5 1.44772 4.5 2V3.5M8.5 3.5H4.5" stroke="#D39800" stroke-linecap="round"/>
</svg>
